<mxfile host="app.diagrams.net" modified="2023-03-29T17:14:29.477Z" agent="Mozilla/5.0 (Windows NT 10.0; Win64; x64) AppleWebKit/537.36 (KHTML, like Gecko) Chrome/111.0.0.0 Safari/537.36 Edg/111.0.1661.54" etag="8czR8pzTjdJyB-geXsiU" version="21.1.1" type="github">
  <diagram id="IMoWFRzWkRb1YAJqIgc9" name="Page-1">
    <mxGraphModel dx="2286" dy="1088" grid="1" gridSize="10" guides="1" tooltips="1" connect="1" arrows="1" fold="1" page="1" pageScale="1" pageWidth="1920" pageHeight="1200" math="0" shadow="1">
      <root>
        <mxCell id="0" />
        <mxCell id="1" parent="0" />
        <mxCell id="REOEvnUnP1cKmhOiyPTP-1" value="&lt;font style=&quot;font-size: 12px;&quot;&gt;Fluxo de retrabalho do anel BX&lt;/font&gt;" style="swimlane;childLayout=stackLayout;resizeParent=1;resizeParentMax=0;horizontal=0;startSize=20;horizontalStack=0;html=1;rounded=0;fontSize=10;" parent="1" vertex="1">
          <mxGeometry x="10" y="10" width="2730" height="1278" as="geometry">
            <mxRectangle x="110" y="90" width="40" height="60" as="alternateBounds" />
          </mxGeometry>
        </mxCell>
        <mxCell id="REOEvnUnP1cKmhOiyPTP-2" value="MMT" style="swimlane;startSize=20;horizontal=0;html=1;rounded=0;" parent="REOEvnUnP1cKmhOiyPTP-1" vertex="1">
          <mxGeometry x="20" width="2710" height="320" as="geometry">
            <mxRectangle x="20" width="650" height="30" as="alternateBounds" />
          </mxGeometry>
        </mxCell>
        <mxCell id="REOEvnUnP1cKmhOiyPTP-8" style="edgeStyle=orthogonalEdgeStyle;rounded=0;orthogonalLoop=1;jettySize=auto;html=1;exitX=1;exitY=0.5;exitDx=0;exitDy=0;exitPerimeter=0;entryX=0;entryY=0.5;entryDx=0;entryDy=0;" parent="REOEvnUnP1cKmhOiyPTP-2" source="REOEvnUnP1cKmhOiyPTP-5" target="REOEvnUnP1cKmhOiyPTP-7" edge="1">
          <mxGeometry relative="1" as="geometry" />
        </mxCell>
        <mxCell id="REOEvnUnP1cKmhOiyPTP-5" value="" style="strokeWidth=2;html=1;shape=mxgraph.flowchart.start_2;whiteSpace=wrap;fillColor=#d5e8d4;strokeColor=#82b366;" parent="REOEvnUnP1cKmhOiyPTP-2" vertex="1">
          <mxGeometry x="40" y="112" width="30" height="30" as="geometry" />
        </mxCell>
        <mxCell id="rvxUXU9-gEQZc84r86SE-13" style="edgeStyle=orthogonalEdgeStyle;rounded=0;orthogonalLoop=1;jettySize=auto;html=1;exitX=1;exitY=0.5;exitDx=0;exitDy=0;entryX=0;entryY=0.5;entryDx=0;entryDy=0;" edge="1" parent="REOEvnUnP1cKmhOiyPTP-2" source="REOEvnUnP1cKmhOiyPTP-7" target="rvxUXU9-gEQZc84r86SE-8">
          <mxGeometry relative="1" as="geometry" />
        </mxCell>
        <mxCell id="REOEvnUnP1cKmhOiyPTP-7" value="&lt;span style=&quot;&quot;&gt;Teste de estanqueidade &lt;br&gt;anel BX&lt;br&gt;&lt;/span&gt;" style="rounded=1;whiteSpace=wrap;html=1;absoluteArcSize=1;arcSize=14;strokeWidth=2;fillColor=#dae8fc;strokeColor=#6c8ebf;" parent="REOEvnUnP1cKmhOiyPTP-2" vertex="1">
          <mxGeometry x="100" y="102" width="100" height="50" as="geometry" />
        </mxCell>
        <mxCell id="rvxUXU9-gEQZc84r86SE-18" style="edgeStyle=orthogonalEdgeStyle;rounded=0;orthogonalLoop=1;jettySize=auto;html=1;exitX=1;exitY=0.5;exitDx=0;exitDy=0;entryX=0;entryY=0.5;entryDx=0;entryDy=0;" edge="1" parent="REOEvnUnP1cKmhOiyPTP-2" source="rvxUXU9-gEQZc84r86SE-7" target="rvxUXU9-gEQZc84r86SE-16">
          <mxGeometry relative="1" as="geometry" />
        </mxCell>
        <mxCell id="rvxUXU9-gEQZc84r86SE-7" value="&lt;font style=&quot;font-size: 12px;&quot;&gt;Desmobilização do equipamento de teste&lt;/font&gt;" style="rounded=1;whiteSpace=wrap;html=1;absoluteArcSize=1;arcSize=14;strokeWidth=2;fillColor=#dae8fc;strokeColor=#6c8ebf;" vertex="1" parent="REOEvnUnP1cKmhOiyPTP-2">
          <mxGeometry x="410" y="102" width="100" height="50" as="geometry" />
        </mxCell>
        <mxCell id="rvxUXU9-gEQZc84r86SE-111" style="edgeStyle=orthogonalEdgeStyle;rounded=0;orthogonalLoop=1;jettySize=auto;html=1;exitX=1;exitY=0.5;exitDx=0;exitDy=0;entryX=0;entryY=0.5;entryDx=0;entryDy=0;" edge="1" parent="REOEvnUnP1cKmhOiyPTP-2" source="rvxUXU9-gEQZc84r86SE-8" target="rvxUXU9-gEQZc84r86SE-27">
          <mxGeometry relative="1" as="geometry" />
        </mxCell>
        <mxCell id="rvxUXU9-gEQZc84r86SE-14" style="edgeStyle=orthogonalEdgeStyle;rounded=0;orthogonalLoop=1;jettySize=auto;html=1;exitX=1;exitY=0.5;exitDx=0;exitDy=0;entryX=0;entryY=0.5;entryDx=0;entryDy=0;" edge="1" parent="REOEvnUnP1cKmhOiyPTP-2" source="rvxUXU9-gEQZc84r86SE-8" target="rvxUXU9-gEQZc84r86SE-7">
          <mxGeometry relative="1" as="geometry" />
        </mxCell>
        <mxCell id="rvxUXU9-gEQZc84r86SE-15" value="Sim" style="edgeLabel;html=1;align=center;verticalAlign=middle;resizable=0;points=[];" vertex="1" connectable="0" parent="rvxUXU9-gEQZc84r86SE-14">
          <mxGeometry x="-0.2418" y="-1" relative="1" as="geometry">
            <mxPoint as="offset" />
          </mxGeometry>
        </mxCell>
        <mxCell id="rvxUXU9-gEQZc84r86SE-91" style="edgeStyle=orthogonalEdgeStyle;rounded=0;orthogonalLoop=1;jettySize=auto;html=1;exitX=0.5;exitY=0;exitDx=0;exitDy=0;entryX=0.5;entryY=0;entryDx=0;entryDy=0;entryPerimeter=0;" edge="1" parent="REOEvnUnP1cKmhOiyPTP-2" source="rvxUXU9-gEQZc84r86SE-8" target="rvxUXU9-gEQZc84r86SE-84">
          <mxGeometry relative="1" as="geometry" />
        </mxCell>
        <mxCell id="rvxUXU9-gEQZc84r86SE-93" value="Não" style="edgeLabel;html=1;align=center;verticalAlign=middle;resizable=0;points=[];" vertex="1" connectable="0" parent="rvxUXU9-gEQZc84r86SE-91">
          <mxGeometry x="-0.9193" y="-1" relative="1" as="geometry">
            <mxPoint as="offset" />
          </mxGeometry>
        </mxCell>
        <mxCell id="rvxUXU9-gEQZc84r86SE-8" value="&lt;font style=&quot;font-size: 11px;&quot;&gt;Falha no teste?&lt;/font&gt;" style="rhombus;whiteSpace=wrap;html=1;strokeColor=#a6a61d;fontSize=10;fillColor=#ffffcc;" vertex="1" parent="REOEvnUnP1cKmhOiyPTP-2">
          <mxGeometry x="270" y="92" width="70" height="70" as="geometry" />
        </mxCell>
        <mxCell id="rvxUXU9-gEQZc84r86SE-12" style="rounded=0;orthogonalLoop=1;jettySize=auto;html=1;exitX=0.31;exitY=0.8;exitDx=0;exitDy=0;exitPerimeter=0;entryX=0.5;entryY=0;entryDx=0;entryDy=0;endArrow=none;endFill=0;startArrow=none;startFill=0;dashed=1;" edge="1" parent="REOEvnUnP1cKmhOiyPTP-2" source="rvxUXU9-gEQZc84r86SE-9" target="REOEvnUnP1cKmhOiyPTP-7">
          <mxGeometry relative="1" as="geometry" />
        </mxCell>
        <mxCell id="rvxUXU9-gEQZc84r86SE-9" value="&lt;span style=&quot;font-size: 11px;&quot;&gt;Anel BX reutilizado&lt;br&gt;após FAT&lt;/span&gt;" style="ellipse;shape=cloud;whiteSpace=wrap;html=1;fillColor=#f5f5f5;fontColor=#333333;strokeColor=#666666;shadow=0;strokeWidth=0;" vertex="1" parent="REOEvnUnP1cKmhOiyPTP-2">
          <mxGeometry x="130" y="10" width="130" height="72" as="geometry" />
        </mxCell>
        <mxCell id="rvxUXU9-gEQZc84r86SE-20" style="edgeStyle=orthogonalEdgeStyle;rounded=0;orthogonalLoop=1;jettySize=auto;html=1;exitX=1;exitY=0.5;exitDx=0;exitDy=0;entryX=0;entryY=0.5;entryDx=0;entryDy=0;" edge="1" parent="REOEvnUnP1cKmhOiyPTP-2" source="rvxUXU9-gEQZc84r86SE-16" target="rvxUXU9-gEQZc84r86SE-19">
          <mxGeometry relative="1" as="geometry" />
        </mxCell>
        <mxCell id="rvxUXU9-gEQZc84r86SE-16" value="&lt;font style=&quot;font-size: 12px;&quot;&gt;Destorqueamento dos estojos&lt;/font&gt;" style="rounded=1;whiteSpace=wrap;html=1;absoluteArcSize=1;arcSize=14;strokeWidth=2;fillColor=#dae8fc;strokeColor=#6c8ebf;" vertex="1" parent="REOEvnUnP1cKmhOiyPTP-2">
          <mxGeometry x="570" y="102" width="100" height="50" as="geometry" />
        </mxCell>
        <mxCell id="rvxUXU9-gEQZc84r86SE-73" style="edgeStyle=orthogonalEdgeStyle;rounded=0;orthogonalLoop=1;jettySize=auto;html=1;exitX=1;exitY=0.5;exitDx=0;exitDy=0;entryX=0;entryY=0.5;entryDx=0;entryDy=0;entryPerimeter=0;" edge="1" parent="REOEvnUnP1cKmhOiyPTP-2" source="rvxUXU9-gEQZc84r86SE-19" target="rvxUXU9-gEQZc84r86SE-154">
          <mxGeometry relative="1" as="geometry">
            <mxPoint x="1129.9999999999957" y="127" as="targetPoint" />
          </mxGeometry>
        </mxCell>
        <mxCell id="rvxUXU9-gEQZc84r86SE-19" value="&lt;font style=&quot;font-size: 12px;&quot;&gt;Remoção do flange&lt;/font&gt;" style="rounded=1;whiteSpace=wrap;html=1;absoluteArcSize=1;arcSize=14;strokeWidth=2;fillColor=#dae8fc;strokeColor=#6c8ebf;" vertex="1" parent="REOEvnUnP1cKmhOiyPTP-2">
          <mxGeometry x="720" y="102" width="100" height="50" as="geometry" />
        </mxCell>
        <mxCell id="rvxUXU9-gEQZc84r86SE-64" style="edgeStyle=orthogonalEdgeStyle;rounded=0;orthogonalLoop=1;jettySize=auto;html=1;exitX=1;exitY=0.5;exitDx=0;exitDy=0;entryX=0;entryY=0.5;entryDx=0;entryDy=0;entryPerimeter=0;" edge="1" parent="REOEvnUnP1cKmhOiyPTP-2" source="rvxUXU9-gEQZc84r86SE-21" target="rvxUXU9-gEQZc84r86SE-24">
          <mxGeometry relative="1" as="geometry">
            <mxPoint x="1790" y="124.2" as="targetPoint" />
          </mxGeometry>
        </mxCell>
        <mxCell id="rvxUXU9-gEQZc84r86SE-21" value="&lt;font style=&quot;font-size: 12px;&quot;&gt;Convocar CQ para inspeção do anel BX e incluir info. relatório teste&lt;/font&gt;" style="rounded=1;html=1;absoluteArcSize=1;arcSize=14;strokeWidth=2;fillColor=#dae8fc;strokeColor=#6c8ebf;whiteSpace=wrap;" vertex="1" parent="REOEvnUnP1cKmhOiyPTP-2">
          <mxGeometry x="1630" y="97.4" width="120" height="59.2" as="geometry" />
        </mxCell>
        <mxCell id="rvxUXU9-gEQZc84r86SE-71" style="edgeStyle=orthogonalEdgeStyle;rounded=0;orthogonalLoop=1;jettySize=auto;html=1;exitX=1;exitY=0.5;exitDx=0;exitDy=0;entryX=0;entryY=0.5;entryDx=0;entryDy=0;" edge="1" parent="REOEvnUnP1cKmhOiyPTP-2" source="rvxUXU9-gEQZc84r86SE-24" target="rvxUXU9-gEQZc84r86SE-26">
          <mxGeometry relative="1" as="geometry" />
        </mxCell>
        <mxCell id="rvxUXU9-gEQZc84r86SE-24" value="&lt;font style=&quot;font-size: 12px;&quot;&gt;Instalação do flange&lt;/font&gt;" style="rounded=1;whiteSpace=wrap;html=1;absoluteArcSize=1;arcSize=14;strokeWidth=2;fillColor=#dae8fc;strokeColor=#6c8ebf;" vertex="1" parent="REOEvnUnP1cKmhOiyPTP-2">
          <mxGeometry x="1820" y="102" width="100" height="50" as="geometry" />
        </mxCell>
        <mxCell id="rvxUXU9-gEQZc84r86SE-79" style="edgeStyle=orthogonalEdgeStyle;rounded=0;orthogonalLoop=1;jettySize=auto;html=1;exitX=1;exitY=0.5;exitDx=0;exitDy=0;entryX=0;entryY=0.5;entryDx=0;entryDy=0;" edge="1" parent="REOEvnUnP1cKmhOiyPTP-2" source="rvxUXU9-gEQZc84r86SE-26" target="rvxUXU9-gEQZc84r86SE-78">
          <mxGeometry relative="1" as="geometry" />
        </mxCell>
        <mxCell id="rvxUXU9-gEQZc84r86SE-26" value="&lt;font style=&quot;font-size: 12px;&quot;&gt;Torqueamento dos estojos&lt;/font&gt;" style="rounded=1;whiteSpace=wrap;html=1;absoluteArcSize=1;arcSize=14;strokeWidth=2;fillColor=#dae8fc;strokeColor=#6c8ebf;" vertex="1" parent="REOEvnUnP1cKmhOiyPTP-2">
          <mxGeometry x="1980" y="102" width="100" height="50" as="geometry" />
        </mxCell>
        <mxCell id="rvxUXU9-gEQZc84r86SE-61" style="edgeStyle=orthogonalEdgeStyle;rounded=0;orthogonalLoop=1;jettySize=auto;html=1;exitX=1;exitY=0.5;exitDx=0;exitDy=0;entryX=0;entryY=0.5;entryDx=0;entryDy=0;" edge="1" parent="REOEvnUnP1cKmhOiyPTP-2" source="rvxUXU9-gEQZc84r86SE-58" target="rvxUXU9-gEQZc84r86SE-62">
          <mxGeometry relative="1" as="geometry">
            <mxPoint x="1220" y="226.0000000000001" as="targetPoint" />
          </mxGeometry>
        </mxCell>
        <mxCell id="rvxUXU9-gEQZc84r86SE-58" value="Recebimento do anel Bx na &lt;br&gt;pré-montagem" style="rounded=1;whiteSpace=wrap;html=1;absoluteArcSize=1;arcSize=14;strokeWidth=2;fillColor=#dae8fc;strokeColor=#6c8ebf;" vertex="1" parent="REOEvnUnP1cKmhOiyPTP-2">
          <mxGeometry x="1320" y="230" width="100" height="50" as="geometry" />
        </mxCell>
        <mxCell id="rvxUXU9-gEQZc84r86SE-75" style="edgeStyle=orthogonalEdgeStyle;rounded=0;orthogonalLoop=1;jettySize=auto;html=1;exitX=0.5;exitY=0;exitDx=0;exitDy=0;entryX=0.5;entryY=1;entryDx=0;entryDy=0;entryPerimeter=0;" edge="1" parent="REOEvnUnP1cKmhOiyPTP-2" source="rvxUXU9-gEQZc84r86SE-62" target="rvxUXU9-gEQZc84r86SE-154">
          <mxGeometry relative="1" as="geometry" />
        </mxCell>
        <mxCell id="rvxUXU9-gEQZc84r86SE-27" value="&lt;font style=&quot;font-size: 12px;&quot;&gt;Abertura de NC&lt;/font&gt;" style="rounded=1;whiteSpace=wrap;html=1;absoluteArcSize=1;arcSize=14;strokeWidth=2;fillColor=#dae8fc;strokeColor=#6c8ebf;" vertex="1" parent="REOEvnUnP1cKmhOiyPTP-2">
          <mxGeometry x="410" y="220" width="100" height="50" as="geometry" />
        </mxCell>
        <mxCell id="rvxUXU9-gEQZc84r86SE-62" value="Entrega do novo anel Bx no teste" style="rounded=1;whiteSpace=wrap;html=1;absoluteArcSize=1;arcSize=14;strokeWidth=2;fillColor=#dae8fc;strokeColor=#6c8ebf;" vertex="1" parent="REOEvnUnP1cKmhOiyPTP-2">
          <mxGeometry x="1490" y="230" width="100" height="50" as="geometry" />
        </mxCell>
        <mxCell id="rvxUXU9-gEQZc84r86SE-69" style="rounded=0;orthogonalLoop=1;jettySize=auto;html=1;exitX=0.31;exitY=0.8;exitDx=0;exitDy=0;exitPerimeter=0;entryX=0.5;entryY=0;entryDx=0;entryDy=0;endArrow=none;endFill=0;dashed=1;" edge="1" parent="REOEvnUnP1cKmhOiyPTP-2" source="rvxUXU9-gEQZc84r86SE-66" target="rvxUXU9-gEQZc84r86SE-21">
          <mxGeometry relative="1" as="geometry">
            <mxPoint x="1726.5" y="64.80000000000003" as="sourcePoint" />
            <mxPoint x="1605" y="62.2" as="targetPoint" />
          </mxGeometry>
        </mxCell>
        <mxCell id="rvxUXU9-gEQZc84r86SE-66" value="&lt;font style=&quot;font-size: 11px;&quot;&gt;Conferencia da rastreabilidade do &lt;br&gt;novo anel BX&lt;/font&gt;" style="ellipse;shape=cloud;whiteSpace=wrap;html=1;fillColor=#f5f5f5;fontColor=#333333;strokeColor=#666666;shadow=0;strokeWidth=0;" vertex="1" parent="REOEvnUnP1cKmhOiyPTP-2">
          <mxGeometry x="1670" width="150" height="72" as="geometry" />
        </mxCell>
        <mxCell id="rvxUXU9-gEQZc84r86SE-74" style="edgeStyle=orthogonalEdgeStyle;rounded=0;orthogonalLoop=1;jettySize=auto;html=1;exitX=1;exitY=0.5;exitDx=0;exitDy=0;entryX=0;entryY=0.5;entryDx=0;entryDy=0;exitPerimeter=0;" edge="1" parent="REOEvnUnP1cKmhOiyPTP-2" source="rvxUXU9-gEQZc84r86SE-154" target="rvxUXU9-gEQZc84r86SE-21">
          <mxGeometry relative="1" as="geometry">
            <mxPoint x="1180.0000000000045" y="127" as="sourcePoint" />
          </mxGeometry>
        </mxCell>
        <mxCell id="rvxUXU9-gEQZc84r86SE-87" style="edgeStyle=orthogonalEdgeStyle;rounded=0;orthogonalLoop=1;jettySize=auto;html=1;exitX=1;exitY=0.5;exitDx=0;exitDy=0;entryX=0;entryY=0.5;entryDx=0;entryDy=0;entryPerimeter=0;" edge="1" parent="REOEvnUnP1cKmhOiyPTP-2" source="rvxUXU9-gEQZc84r86SE-77" target="rvxUXU9-gEQZc84r86SE-84">
          <mxGeometry relative="1" as="geometry" />
        </mxCell>
        <mxCell id="rvxUXU9-gEQZc84r86SE-77" value="&lt;font style=&quot;font-size: 12px;&quot;&gt;Teste de estanqueidade no novo anel BX&lt;/font&gt;" style="rounded=1;whiteSpace=wrap;html=1;absoluteArcSize=1;arcSize=14;strokeWidth=2;fillColor=#dae8fc;strokeColor=#6c8ebf;" vertex="1" parent="REOEvnUnP1cKmhOiyPTP-2">
          <mxGeometry x="2470" y="102" width="100" height="50" as="geometry" />
        </mxCell>
        <mxCell id="rvxUXU9-gEQZc84r86SE-82" style="edgeStyle=orthogonalEdgeStyle;rounded=0;orthogonalLoop=1;jettySize=auto;html=1;exitX=1;exitY=0.5;exitDx=0;exitDy=0;entryX=0;entryY=0.5;entryDx=0;entryDy=0;" edge="1" parent="REOEvnUnP1cKmhOiyPTP-2" source="rvxUXU9-gEQZc84r86SE-78" target="rvxUXU9-gEQZc84r86SE-81">
          <mxGeometry relative="1" as="geometry" />
        </mxCell>
        <mxCell id="rvxUXU9-gEQZc84r86SE-78" value="&lt;font style=&quot;font-size: 12px;&quot;&gt;Mobilização do equipamento de teste&lt;/font&gt;" style="rounded=1;whiteSpace=wrap;html=1;absoluteArcSize=1;arcSize=14;strokeWidth=2;fillColor=#dae8fc;strokeColor=#6c8ebf;" vertex="1" parent="REOEvnUnP1cKmhOiyPTP-2">
          <mxGeometry x="2150" y="102" width="100" height="50" as="geometry" />
        </mxCell>
        <mxCell id="rvxUXU9-gEQZc84r86SE-83" style="edgeStyle=orthogonalEdgeStyle;rounded=0;orthogonalLoop=1;jettySize=auto;html=1;exitX=1;exitY=0.5;exitDx=0;exitDy=0;entryX=0;entryY=0.5;entryDx=0;entryDy=0;" edge="1" parent="REOEvnUnP1cKmhOiyPTP-2" source="rvxUXU9-gEQZc84r86SE-81" target="rvxUXU9-gEQZc84r86SE-77">
          <mxGeometry relative="1" as="geometry" />
        </mxCell>
        <mxCell id="rvxUXU9-gEQZc84r86SE-81" value="&lt;font style=&quot;font-size: 12px;&quot;&gt;Convocar CQ para acompanhar o teste de 5 min&lt;/font&gt;" style="rounded=1;whiteSpace=wrap;html=1;absoluteArcSize=1;arcSize=14;strokeWidth=2;fillColor=#dae8fc;strokeColor=#6c8ebf;" vertex="1" parent="REOEvnUnP1cKmhOiyPTP-2">
          <mxGeometry x="2310" y="102" width="100" height="50" as="geometry" />
        </mxCell>
        <mxCell id="rvxUXU9-gEQZc84r86SE-84" value="Aprovado" style="strokeWidth=2;html=1;shape=mxgraph.flowchart.start_2;whiteSpace=wrap;fillColor=#eeaaaa;strokeColor=#9f0d0d;labelPosition=center;verticalLabelPosition=bottom;align=center;verticalAlign=top;" vertex="1" parent="REOEvnUnP1cKmhOiyPTP-2">
          <mxGeometry x="2630" y="112" width="30" height="30" as="geometry" />
        </mxCell>
        <mxCell id="rvxUXU9-gEQZc84r86SE-85" value="Indice de falha 55% &lt;br style=&quot;font-size: 11px;&quot;&gt;*Levantamento de 2022" style="text;html=1;align=center;verticalAlign=middle;resizable=0;points=[];autosize=1;strokeColor=none;fillColor=none;fontSize=11;" vertex="1" parent="REOEvnUnP1cKmhOiyPTP-2">
          <mxGeometry x="235" y="162" width="140" height="40" as="geometry" />
        </mxCell>
        <mxCell id="rvxUXU9-gEQZc84r86SE-96" value="&lt;span style=&quot;font-size: 11px;&quot;&gt;Fluxo INTELEX&lt;/span&gt;" style="ellipse;shape=cloud;whiteSpace=wrap;html=1;fillColor=#f5f5f5;fontColor=#333333;strokeColor=#666666;shadow=0;strokeWidth=0;" vertex="1" parent="REOEvnUnP1cKmhOiyPTP-2">
          <mxGeometry x="480" y="170" width="130" height="72" as="geometry" />
        </mxCell>
        <mxCell id="rvxUXU9-gEQZc84r86SE-86" value="Indice de falha 0%" style="text;html=1;align=center;verticalAlign=middle;resizable=0;points=[];autosize=1;strokeColor=none;fillColor=none;" vertex="1" parent="REOEvnUnP1cKmhOiyPTP-2">
          <mxGeometry x="2340" y="152" width="120" height="30" as="geometry" />
        </mxCell>
        <mxCell id="rvxUXU9-gEQZc84r86SE-108" value="Teste com &lt;br style=&quot;font-size: 11px;&quot;&gt;acompanhamento CQ" style="text;html=1;align=center;verticalAlign=middle;resizable=0;points=[];autosize=1;strokeColor=none;fillColor=none;fontSize=11;" vertex="1" parent="REOEvnUnP1cKmhOiyPTP-2">
          <mxGeometry x="85" y="150" width="130" height="40" as="geometry" />
        </mxCell>
        <mxCell id="rvxUXU9-gEQZc84r86SE-113" style="rounded=0;orthogonalLoop=1;jettySize=auto;html=1;exitX=0.31;exitY=0.8;exitDx=0;exitDy=0;exitPerimeter=0;entryX=1;entryY=0.5;entryDx=0;entryDy=0;endArrow=none;endFill=0;startArrow=none;startFill=0;dashed=1;" edge="1" parent="REOEvnUnP1cKmhOiyPTP-2" source="rvxUXU9-gEQZc84r86SE-96" target="rvxUXU9-gEQZc84r86SE-27">
          <mxGeometry relative="1" as="geometry">
            <mxPoint x="180" y="78" as="sourcePoint" />
            <mxPoint x="160" y="112" as="targetPoint" />
          </mxGeometry>
        </mxCell>
        <mxCell id="rvxUXU9-gEQZc84r86SE-114" value="Realizado com ponte rolante &lt;br style=&quot;font-size: 11px;&quot;&gt;ou equip. de içamento" style="text;html=1;align=center;verticalAlign=middle;resizable=0;points=[];autosize=1;strokeColor=none;fillColor=none;fontSize=11;" vertex="1" parent="REOEvnUnP1cKmhOiyPTP-2">
          <mxGeometry x="690" y="152" width="160" height="40" as="geometry" />
        </mxCell>
        <mxCell id="rvxUXU9-gEQZc84r86SE-153" value="Realizado com ponte rolante &lt;br style=&quot;font-size: 11px;&quot;&gt;ou equip. de içamento" style="text;html=1;align=center;verticalAlign=middle;resizable=0;points=[];autosize=1;strokeColor=none;fillColor=none;fontSize=11;" vertex="1" parent="REOEvnUnP1cKmhOiyPTP-2">
          <mxGeometry x="1790" y="150" width="160" height="40" as="geometry" />
        </mxCell>
        <mxCell id="rvxUXU9-gEQZc84r86SE-154" value="Aguardando" style="points=[[0.145,0.145,0],[0.5,0,0],[0.855,0.145,0],[1,0.5,0],[0.855,0.855,0],[0.5,1,0],[0.145,0.855,0],[0,0.5,0]];shape=mxgraph.bpmn.event;html=1;verticalLabelPosition=top;labelBackgroundColor=none;verticalAlign=bottom;align=center;perimeter=ellipsePerimeter;outlineConnect=0;aspect=fixed;outline=standard;symbol=timer;fillColor=#FFFFCC;strokeColor=#A6A61D;labelPosition=center;" vertex="1" parent="REOEvnUnP1cKmhOiyPTP-2">
          <mxGeometry x="1515" y="102" width="50" height="50" as="geometry" />
        </mxCell>
        <mxCell id="rvxUXU9-gEQZc84r86SE-53" value="PLM" style="swimlane;startSize=20;horizontal=0;html=1;rounded=0;" vertex="1" parent="REOEvnUnP1cKmhOiyPTP-1">
          <mxGeometry x="20" y="320" width="2710" height="280" as="geometry">
            <mxRectangle x="20" width="650" height="30" as="alternateBounds" />
          </mxGeometry>
        </mxCell>
        <mxCell id="rvxUXU9-gEQZc84r86SE-57" style="edgeStyle=orthogonalEdgeStyle;rounded=0;orthogonalLoop=1;jettySize=auto;html=1;exitX=1;exitY=0.5;exitDx=0;exitDy=0;entryX=0;entryY=0.5;entryDx=0;entryDy=0;" edge="1" parent="rvxUXU9-gEQZc84r86SE-53" source="rvxUXU9-gEQZc84r86SE-47" target="rvxUXU9-gEQZc84r86SE-54">
          <mxGeometry relative="1" as="geometry">
            <mxPoint x="1590" y="55" as="targetPoint" />
          </mxGeometry>
        </mxCell>
        <mxCell id="rvxUXU9-gEQZc84r86SE-47" value="Incluir anel BX em ordem do tramo (SLIP)&lt;span style=&quot;font-size: 10px;&quot;&gt;&lt;br&gt;&lt;/span&gt;" style="rounded=1;whiteSpace=wrap;html=1;absoluteArcSize=1;arcSize=14;strokeWidth=2;fillColor=#dae8fc;strokeColor=#6c8ebf;" vertex="1" parent="rvxUXU9-gEQZc84r86SE-53">
          <mxGeometry x="1140" y="40" width="100" height="50" as="geometry" />
        </mxCell>
        <mxCell id="rvxUXU9-gEQZc84r86SE-54" value="Disponibilizar &lt;br&gt;anel BX na &lt;br&gt;pré-montagem" style="rounded=1;whiteSpace=wrap;html=1;absoluteArcSize=1;arcSize=14;strokeWidth=2;fillColor=#dae8fc;strokeColor=#6c8ebf;" vertex="1" parent="rvxUXU9-gEQZc84r86SE-53">
          <mxGeometry x="1320" y="40" width="100" height="50" as="geometry" />
        </mxCell>
        <mxCell id="rvxUXU9-gEQZc84r86SE-149" style="edgeStyle=orthogonalEdgeStyle;rounded=0;orthogonalLoop=1;jettySize=auto;html=1;exitX=0.5;exitY=0;exitDx=0;exitDy=0;entryX=0.5;entryY=1;entryDx=0;entryDy=0;" edge="1" parent="rvxUXU9-gEQZc84r86SE-53" source="rvxUXU9-gEQZc84r86SE-99" target="rvxUXU9-gEQZc84r86SE-47">
          <mxGeometry relative="1" as="geometry" />
        </mxCell>
        <mxCell id="rvxUXU9-gEQZc84r86SE-99" value="Recebimento e cadastro do &lt;br&gt;novo anel BX" style="rounded=1;whiteSpace=wrap;html=1;absoluteArcSize=1;arcSize=14;strokeWidth=2;fillColor=#dae8fc;strokeColor=#6c8ebf;" vertex="1" parent="rvxUXU9-gEQZc84r86SE-53">
          <mxGeometry x="1140" y="180" width="100" height="50" as="geometry" />
        </mxCell>
        <mxCell id="rvxUXU9-gEQZc84r86SE-107" value="&lt;span style=&quot;font-size: 11px;&quot;&gt;Conferência / Cadastro da NF pelo time de custos&lt;/span&gt;" style="ellipse;shape=cloud;whiteSpace=wrap;html=1;fillColor=#f5f5f5;fontColor=#333333;strokeColor=#666666;shadow=0;strokeWidth=0;" vertex="1" parent="rvxUXU9-gEQZc84r86SE-53">
          <mxGeometry x="1230" y="130" width="150" height="72" as="geometry" />
        </mxCell>
        <mxCell id="rvxUXU9-gEQZc84r86SE-150" style="rounded=0;orthogonalLoop=1;jettySize=auto;html=1;exitX=0.31;exitY=0.8;exitDx=0;exitDy=0;exitPerimeter=0;entryX=1;entryY=0.5;entryDx=0;entryDy=0;endArrow=none;endFill=0;startArrow=none;startFill=0;dashed=1;" edge="1" parent="rvxUXU9-gEQZc84r86SE-53" source="rvxUXU9-gEQZc84r86SE-107" target="rvxUXU9-gEQZc84r86SE-99">
          <mxGeometry relative="1" as="geometry">
            <mxPoint x="180" y="-242" as="sourcePoint" />
            <mxPoint x="160" y="-208" as="targetPoint" />
          </mxGeometry>
        </mxCell>
        <mxCell id="REOEvnUnP1cKmhOiyPTP-3" value="ADAF" style="swimlane;startSize=20;horizontal=0;html=1;rounded=0;labelPosition=center;verticalLabelPosition=middle;align=center;verticalAlign=middle;" parent="REOEvnUnP1cKmhOiyPTP-1" vertex="1">
          <mxGeometry x="20" y="600" width="2710" height="358" as="geometry">
            <mxRectangle x="20" y="80" width="880" height="30" as="alternateBounds" />
          </mxGeometry>
        </mxCell>
        <mxCell id="rvxUXU9-gEQZc84r86SE-32" style="edgeStyle=orthogonalEdgeStyle;rounded=0;orthogonalLoop=1;jettySize=auto;html=1;exitX=1;exitY=0.5;exitDx=0;exitDy=0;entryX=0;entryY=0.5;entryDx=0;entryDy=0;" edge="1" parent="REOEvnUnP1cKmhOiyPTP-3" source="rvxUXU9-gEQZc84r86SE-28" target="rvxUXU9-gEQZc84r86SE-31">
          <mxGeometry relative="1" as="geometry" />
        </mxCell>
        <mxCell id="rvxUXU9-gEQZc84r86SE-28" value="Recebimento da NC" style="rounded=1;whiteSpace=wrap;html=1;absoluteArcSize=1;arcSize=14;strokeWidth=2;fillColor=#dae8fc;strokeColor=#6c8ebf;" vertex="1" parent="REOEvnUnP1cKmhOiyPTP-3">
          <mxGeometry x="410" y="185" width="100" height="50" as="geometry" />
        </mxCell>
        <mxCell id="rvxUXU9-gEQZc84r86SE-33" style="edgeStyle=orthogonalEdgeStyle;rounded=0;orthogonalLoop=1;jettySize=auto;html=1;exitX=0.5;exitY=0;exitDx=0;exitDy=0;entryX=0;entryY=0.5;entryDx=0;entryDy=0;" edge="1" parent="REOEvnUnP1cKmhOiyPTP-3" source="rvxUXU9-gEQZc84r86SE-31" target="rvxUXU9-gEQZc84r86SE-115">
          <mxGeometry relative="1" as="geometry">
            <mxPoint x="669.9999999999998" y="150" as="targetPoint" />
          </mxGeometry>
        </mxCell>
        <mxCell id="rvxUXU9-gEQZc84r86SE-34" value="Sim" style="edgeLabel;html=1;align=center;verticalAlign=middle;resizable=0;points=[];" vertex="1" connectable="0" parent="rvxUXU9-gEQZc84r86SE-33">
          <mxGeometry x="-0.3653" y="1" relative="1" as="geometry">
            <mxPoint x="8" y="1" as="offset" />
          </mxGeometry>
        </mxCell>
        <mxCell id="rvxUXU9-gEQZc84r86SE-37" style="edgeStyle=orthogonalEdgeStyle;rounded=0;orthogonalLoop=1;jettySize=auto;html=1;exitX=0.5;exitY=1;exitDx=0;exitDy=0;entryX=0;entryY=0.5;entryDx=0;entryDy=0;" edge="1" parent="REOEvnUnP1cKmhOiyPTP-3" source="rvxUXU9-gEQZc84r86SE-31" target="rvxUXU9-gEQZc84r86SE-36">
          <mxGeometry relative="1" as="geometry" />
        </mxCell>
        <mxCell id="rvxUXU9-gEQZc84r86SE-38" value="Não" style="edgeLabel;html=1;align=center;verticalAlign=middle;resizable=0;points=[];" vertex="1" connectable="0" parent="rvxUXU9-gEQZc84r86SE-37">
          <mxGeometry x="-0.2723" relative="1" as="geometry">
            <mxPoint y="-17" as="offset" />
          </mxGeometry>
        </mxCell>
        <mxCell id="rvxUXU9-gEQZc84r86SE-31" value="&lt;font style=&quot;font-size: 11px;&quot;&gt;Existe anel compatível no site?&lt;/font&gt;" style="rhombus;whiteSpace=wrap;html=1;strokeColor=#a6a61d;fontSize=10;fillColor=#ffffcc;" vertex="1" parent="REOEvnUnP1cKmhOiyPTP-3">
          <mxGeometry x="560" y="175" width="70" height="70" as="geometry" />
        </mxCell>
        <mxCell id="rvxUXU9-gEQZc84r86SE-36" value="Solicitar compra do anel BX" style="rounded=1;whiteSpace=wrap;html=1;absoluteArcSize=1;arcSize=14;strokeWidth=2;fillColor=#dae8fc;strokeColor=#6c8ebf;" vertex="1" parent="REOEvnUnP1cKmhOiyPTP-3">
          <mxGeometry x="670" y="275" width="100" height="50" as="geometry" />
        </mxCell>
        <mxCell id="rvxUXU9-gEQZc84r86SE-124" style="edgeStyle=orthogonalEdgeStyle;rounded=0;orthogonalLoop=1;jettySize=auto;html=1;exitX=0.5;exitY=0;exitDx=0;exitDy=0;entryX=0;entryY=0.5;entryDx=0;entryDy=0;" edge="1" parent="REOEvnUnP1cKmhOiyPTP-3" source="rvxUXU9-gEQZc84r86SE-115" target="rvxUXU9-gEQZc84r86SE-118">
          <mxGeometry relative="1" as="geometry" />
        </mxCell>
        <mxCell id="rvxUXU9-gEQZc84r86SE-126" value="Sim" style="edgeLabel;html=1;align=center;verticalAlign=middle;resizable=0;points=[];" vertex="1" connectable="0" parent="rvxUXU9-gEQZc84r86SE-124">
          <mxGeometry x="-0.1653" y="-1" relative="1" as="geometry">
            <mxPoint x="-9" y="24" as="offset" />
          </mxGeometry>
        </mxCell>
        <mxCell id="rvxUXU9-gEQZc84r86SE-136" style="edgeStyle=orthogonalEdgeStyle;rounded=0;orthogonalLoop=1;jettySize=auto;html=1;exitX=1;exitY=0.5;exitDx=0;exitDy=0;entryX=0;entryY=0.5;entryDx=0;entryDy=0;" edge="1" parent="REOEvnUnP1cKmhOiyPTP-3" source="rvxUXU9-gEQZc84r86SE-115" target="rvxUXU9-gEQZc84r86SE-134">
          <mxGeometry relative="1" as="geometry" />
        </mxCell>
        <mxCell id="rvxUXU9-gEQZc84r86SE-123" style="edgeStyle=orthogonalEdgeStyle;rounded=0;orthogonalLoop=1;jettySize=auto;html=1;exitX=1;exitY=0.5;exitDx=0;exitDy=0;entryX=0;entryY=0.5;entryDx=0;entryDy=0;" edge="1" parent="REOEvnUnP1cKmhOiyPTP-3" source="rvxUXU9-gEQZc84r86SE-115" target="rvxUXU9-gEQZc84r86SE-117">
          <mxGeometry relative="1" as="geometry" />
        </mxCell>
        <mxCell id="rvxUXU9-gEQZc84r86SE-127" value="Não" style="edgeLabel;html=1;align=center;verticalAlign=middle;resizable=0;points=[];" vertex="1" connectable="0" parent="rvxUXU9-gEQZc84r86SE-123">
          <mxGeometry x="-0.2258" relative="1" as="geometry">
            <mxPoint as="offset" />
          </mxGeometry>
        </mxCell>
        <mxCell id="rvxUXU9-gEQZc84r86SE-115" value="&lt;font style=&quot;font-size: 11px;&quot;&gt;Anel BX de sobra?&lt;/font&gt;" style="rhombus;whiteSpace=wrap;html=1;strokeColor=#a6a61d;fontSize=10;fillColor=#ffffcc;" vertex="1" parent="REOEvnUnP1cKmhOiyPTP-3">
          <mxGeometry x="685" y="114.99999999999997" width="70" height="70" as="geometry" />
        </mxCell>
        <mxCell id="rvxUXU9-gEQZc84r86SE-122" style="edgeStyle=orthogonalEdgeStyle;rounded=0;orthogonalLoop=1;jettySize=auto;html=1;exitX=1;exitY=0.5;exitDx=0;exitDy=0;entryX=0.5;entryY=1;entryDx=0;entryDy=0;" edge="1" parent="REOEvnUnP1cKmhOiyPTP-3" source="rvxUXU9-gEQZc84r86SE-117" target="rvxUXU9-gEQZc84r86SE-119">
          <mxGeometry relative="1" as="geometry">
            <mxPoint x="1439.9999999999995" y="155.6500000000001" as="targetPoint" />
          </mxGeometry>
        </mxCell>
        <mxCell id="rvxUXU9-gEQZc84r86SE-117" value="Retirar anel BX de outro projeto (Switch)&lt;span style=&quot;font-size: 10px;&quot;&gt;&lt;br&gt;&lt;/span&gt;" style="rounded=1;whiteSpace=wrap;html=1;absoluteArcSize=1;arcSize=14;strokeWidth=2;fillColor=#dae8fc;strokeColor=#6c8ebf;" vertex="1" parent="REOEvnUnP1cKmhOiyPTP-3">
          <mxGeometry x="820" y="125" width="100" height="50" as="geometry" />
        </mxCell>
        <mxCell id="rvxUXU9-gEQZc84r86SE-125" style="edgeStyle=orthogonalEdgeStyle;rounded=0;orthogonalLoop=1;jettySize=auto;html=1;exitX=1;exitY=0.5;exitDx=0;exitDy=0;entryX=0;entryY=0.5;entryDx=0;entryDy=0;" edge="1" parent="REOEvnUnP1cKmhOiyPTP-3" source="rvxUXU9-gEQZc84r86SE-118" target="rvxUXU9-gEQZc84r86SE-119">
          <mxGeometry relative="1" as="geometry" />
        </mxCell>
        <mxCell id="rvxUXU9-gEQZc84r86SE-118" value="Utilizar anel BX (sobra)&lt;span style=&quot;font-size: 10px;&quot;&gt;&lt;br&gt;&lt;/span&gt;" style="rounded=1;whiteSpace=wrap;html=1;absoluteArcSize=1;arcSize=14;strokeWidth=2;fillColor=#dae8fc;strokeColor=#6c8ebf;" vertex="1" parent="REOEvnUnP1cKmhOiyPTP-3">
          <mxGeometry x="820" y="33" width="100" height="50" as="geometry" />
        </mxCell>
        <mxCell id="rvxUXU9-gEQZc84r86SE-119" value="Solicitar ao PLM entrega do anel BX" style="rounded=1;whiteSpace=wrap;html=1;absoluteArcSize=1;arcSize=14;strokeWidth=2;fillColor=#dae8fc;strokeColor=#6c8ebf;" vertex="1" parent="REOEvnUnP1cKmhOiyPTP-3">
          <mxGeometry x="980" y="33" width="100" height="50" as="geometry" />
        </mxCell>
        <mxCell id="rvxUXU9-gEQZc84r86SE-134" value="&amp;nbsp; Iniciar compra de anel BX&lt;br&gt;&amp;nbsp; para reposição" style="ellipse;html=1;aspect=fixed;fillColor=#FFFFCC;strokeColor=#A6A61D;labelPosition=right;verticalLabelPosition=middle;align=left;verticalAlign=middle;" vertex="1" parent="REOEvnUnP1cKmhOiyPTP-3">
          <mxGeometry x="845" y="205" width="50" height="50" as="geometry" />
        </mxCell>
        <mxCell id="REOEvnUnP1cKmhOiyPTP-4" value="CDMB" style="swimlane;startSize=20;horizontal=0;html=1;rounded=0;" parent="REOEvnUnP1cKmhOiyPTP-1" vertex="1">
          <mxGeometry x="20" y="958" width="2710" height="160" as="geometry">
            <mxRectangle x="20" y="200" width="880" height="30" as="alternateBounds" />
          </mxGeometry>
        </mxCell>
        <mxCell id="rvxUXU9-gEQZc84r86SE-35" value="Executar compra" style="rounded=1;whiteSpace=wrap;html=1;absoluteArcSize=1;arcSize=14;strokeWidth=2;fillColor=#dae8fc;strokeColor=#6c8ebf;" vertex="1" parent="REOEvnUnP1cKmhOiyPTP-4">
          <mxGeometry x="670" y="55" width="100" height="50" as="geometry" />
        </mxCell>
        <mxCell id="3ngB4kAbQusvfdiSP5Xu-5" value="FORNECEDOR" style="swimlane;startSize=20;horizontal=0;html=1;rounded=0;" parent="REOEvnUnP1cKmhOiyPTP-1" vertex="1">
          <mxGeometry x="20" y="1118" width="2710" height="160" as="geometry">
            <mxRectangle x="20" y="330" width="780" height="30" as="alternateBounds" />
          </mxGeometry>
        </mxCell>
        <mxCell id="rvxUXU9-gEQZc84r86SE-48" style="edgeStyle=orthogonalEdgeStyle;rounded=0;orthogonalLoop=1;jettySize=auto;html=1;exitX=1;exitY=0.5;exitDx=0;exitDy=0;entryX=0;entryY=0.5;entryDx=0;entryDy=0;" edge="1" parent="3ngB4kAbQusvfdiSP5Xu-5" source="rvxUXU9-gEQZc84r86SE-43" target="rvxUXU9-gEQZc84r86SE-45">
          <mxGeometry relative="1" as="geometry" />
        </mxCell>
        <mxCell id="rvxUXU9-gEQZc84r86SE-43" value="Recebimento da demanda" style="rounded=1;whiteSpace=wrap;html=1;absoluteArcSize=1;arcSize=14;strokeWidth=2;fillColor=#dae8fc;strokeColor=#6c8ebf;" vertex="1" parent="3ngB4kAbQusvfdiSP5Xu-5">
          <mxGeometry x="670" y="55" width="100" height="50" as="geometry" />
        </mxCell>
        <mxCell id="rvxUXU9-gEQZc84r86SE-49" style="edgeStyle=orthogonalEdgeStyle;rounded=0;orthogonalLoop=1;jettySize=auto;html=1;exitX=1;exitY=0.5;exitDx=0;exitDy=0;entryX=0;entryY=0.5;entryDx=0;entryDy=0;" edge="1" parent="3ngB4kAbQusvfdiSP5Xu-5" source="rvxUXU9-gEQZc84r86SE-45" target="rvxUXU9-gEQZc84r86SE-46">
          <mxGeometry relative="1" as="geometry" />
        </mxCell>
        <mxCell id="rvxUXU9-gEQZc84r86SE-45" value="Execução" style="ellipse;whiteSpace=wrap;html=1;aspect=fixed;fillColor=#FFFFCC;strokeColor=#A6A61D;labelPosition=center;verticalLabelPosition=top;align=center;verticalAlign=bottom;" vertex="1" parent="3ngB4kAbQusvfdiSP5Xu-5">
          <mxGeometry x="920" y="55" width="50" height="50" as="geometry" />
        </mxCell>
        <mxCell id="rvxUXU9-gEQZc84r86SE-46" value="&lt;font style=&quot;font-size: 12px;&quot;&gt;Envio do anel BX&lt;/font&gt;" style="rounded=1;whiteSpace=wrap;html=1;absoluteArcSize=1;arcSize=14;strokeWidth=2;fillColor=#dae8fc;strokeColor=#6c8ebf;" vertex="1" parent="3ngB4kAbQusvfdiSP5Xu-5">
          <mxGeometry x="1140" y="55" width="100" height="50" as="geometry" />
        </mxCell>
        <mxCell id="rvxUXU9-gEQZc84r86SE-30" style="edgeStyle=orthogonalEdgeStyle;rounded=0;orthogonalLoop=1;jettySize=auto;html=1;exitX=0.5;exitY=1;exitDx=0;exitDy=0;entryX=0.5;entryY=0;entryDx=0;entryDy=0;" edge="1" parent="REOEvnUnP1cKmhOiyPTP-1" source="rvxUXU9-gEQZc84r86SE-27" target="rvxUXU9-gEQZc84r86SE-28">
          <mxGeometry relative="1" as="geometry" />
        </mxCell>
        <mxCell id="rvxUXU9-gEQZc84r86SE-41" style="edgeStyle=orthogonalEdgeStyle;rounded=0;orthogonalLoop=1;jettySize=auto;html=1;exitX=0.5;exitY=1;exitDx=0;exitDy=0;entryX=0.5;entryY=0;entryDx=0;entryDy=0;" edge="1" parent="REOEvnUnP1cKmhOiyPTP-1" source="rvxUXU9-gEQZc84r86SE-36" target="rvxUXU9-gEQZc84r86SE-35">
          <mxGeometry relative="1" as="geometry">
            <mxPoint x="680" y="740" as="targetPoint" />
          </mxGeometry>
        </mxCell>
        <mxCell id="rvxUXU9-gEQZc84r86SE-50" style="edgeStyle=orthogonalEdgeStyle;rounded=0;orthogonalLoop=1;jettySize=auto;html=1;exitX=0.5;exitY=0;exitDx=0;exitDy=0;entryX=0.5;entryY=1;entryDx=0;entryDy=0;" edge="1" parent="REOEvnUnP1cKmhOiyPTP-1" source="rvxUXU9-gEQZc84r86SE-46" target="rvxUXU9-gEQZc84r86SE-99">
          <mxGeometry relative="1" as="geometry">
            <mxPoint x="990" y="460" as="targetPoint" />
          </mxGeometry>
        </mxCell>
        <mxCell id="rvxUXU9-gEQZc84r86SE-55" style="edgeStyle=orthogonalEdgeStyle;rounded=0;orthogonalLoop=1;jettySize=auto;html=1;exitX=0.5;exitY=1;exitDx=0;exitDy=0;entryX=0.5;entryY=0;entryDx=0;entryDy=0;" edge="1" parent="REOEvnUnP1cKmhOiyPTP-1" source="rvxUXU9-gEQZc84r86SE-35" target="rvxUXU9-gEQZc84r86SE-43">
          <mxGeometry relative="1" as="geometry" />
        </mxCell>
        <mxCell id="rvxUXU9-gEQZc84r86SE-60" style="edgeStyle=orthogonalEdgeStyle;rounded=0;orthogonalLoop=1;jettySize=auto;html=1;exitX=0.5;exitY=0;exitDx=0;exitDy=0;entryX=0.5;entryY=1;entryDx=0;entryDy=0;" edge="1" parent="REOEvnUnP1cKmhOiyPTP-1" source="rvxUXU9-gEQZc84r86SE-54" target="rvxUXU9-gEQZc84r86SE-58">
          <mxGeometry relative="1" as="geometry" />
        </mxCell>
        <mxCell id="rvxUXU9-gEQZc84r86SE-133" style="edgeStyle=orthogonalEdgeStyle;rounded=0;orthogonalLoop=1;jettySize=auto;html=1;exitX=0.5;exitY=0;exitDx=0;exitDy=0;entryX=0;entryY=0.5;entryDx=0;entryDy=0;" edge="1" parent="REOEvnUnP1cKmhOiyPTP-1" source="rvxUXU9-gEQZc84r86SE-119" target="rvxUXU9-gEQZc84r86SE-47">
          <mxGeometry relative="1" as="geometry" />
        </mxCell>
      </root>
    </mxGraphModel>
  </diagram>
</mxfile>
